<svg xmlns="http://www.w3.org/2000/svg" width="1405.21" height="479.67" viewBox="0 0 1405.21 479.67" preserveAspectRatio="xMidYMid meet"><title>milkyWay</title><g id="Layer_2" data-name="Layer 2"><g id="Layer_1-2" data-name="Layer 1"><path d="M1373.09,416.71H1033a15,15,0,0,1-15-15h0a14.26,14.26,0,0,1,14.25-14.26H1042a14.26,14.26,0,0,0,14.26-14.26v-.7A14.26,14.26,0,0,0,1042,358.27H993.15a14.51,14.51,0,0,1-14.47-11.92,14.27,14.27,0,0,1,14.07-16.6h44.43a14.25,14.25,0,0,0,14.26-14.26v-.7a14.25,14.25,0,0,0-14.26-14.26H934.26A14.26,14.26,0,0,1,920,286.27h0a15,15,0,0,1,15-15H1093.4a31.47,31.47,0,0,0,31.47-31.48h0a31.47,31.47,0,0,0-31.47-31.47H728a15,15,0,0,1-15-15h0a14.26,14.26,0,0,1,14.26-14.25h17.24a14.26,14.26,0,0,0,14.26-14.26v-.71a14.26,14.26,0,0,0-14.26-14.26H675.29A14.5,14.5,0,0,1,660.82,138a14.26,14.26,0,0,1,14.07-16.59h8.16a15.27,15.27,0,0,0,14.85-11,14.29,14.29,0,0,0-13.72-18.24H617.09a14.26,14.26,0,0,1-14.26-14.25h0a15,15,0,0,1,15-15H780a31.47,31.47,0,0,0,31.48-31.47h0A31.47,31.47,0,0,0,780,0H31.48A31.47,31.47,0,0,0,0,31.48H0A31.47,31.47,0,0,0,31.48,63H558.65a15,15,0,0,1,15,15h0a14.25,14.25,0,0,1-14.26,14.25h-20c-7.38,0-14.21,6-14.64,13.36a15,15,0,0,0,14.94,15.87h77.08a14.51,14.51,0,0,1,14.47,11.92,14.26,14.26,0,0,1-14.07,16.59h-.94c-7.37,0-14.2,6-14.64,13.36a15,15,0,0,0,14.94,15.87h53.06a14.25,14.25,0,0,1,14.26,14.25h0a15,15,0,0,1-15,15H502.71a31.48,31.48,0,0,0-31.48,31.47h0a31.48,31.48,0,0,0,31.48,31.48H875.82a15,15,0,0,1,15,15h0a14.25,14.25,0,0,1-14.26,14.26H861.36a14.25,14.25,0,0,0-14.26,14.26v.7a14.25,14.25,0,0,0,14.26,14.26h73.25a14.51,14.51,0,0,1,14.47,11.92A14.27,14.27,0,0,1,935,358.27h-1.44a14.26,14.26,0,0,0-14.26,14.26v.7a14.26,14.26,0,0,0,14.26,14.26h41a14.26,14.26,0,0,1,14.25,14.26h0a15,15,0,0,1-15,15H798.57c-16.1,0-30.88,13.09-32,29.15a31.47,31.47,0,0,0,31.39,33.81h575.8a31.48,31.48,0,0,0,31.39-33.81C1404,429.8,1389.19,416.71,1373.09,416.71Z" fill="#0c3439"/></g></g></svg>