<svg width="881" height="881" viewBox="0 0 881 881" fill="none" xmlns="http://www.w3.org/2000/svg">
<g filter="url(#filter0_d_3_22)">
<g clip-path="url(#clip0_3_22)">
<rect x="120" y="157.854" width="600" height="600" rx="300" transform="rotate(-4 120 157.854)" fill="url(#paint0_linear_3_22)"/>
<g opacity="0.5" filter="url(#filter1_i_3_22)">
<path d="M425.401 541.543C410.03 550.587 396.464 544.311 387.182 528.535C377.9 512.76 382.836 492.64 398.207 483.596C413.577 474.551 431.667 480.138 440.949 495.913C450.231 511.689 440.772 532.499 425.401 541.543Z" fill="#C0B1E2"/>
</g>
<g opacity="0.7" filter="url(#filter2_i_3_22)">
<path d="M424.925 529.006C415.217 534.718 399.787 533.202 394.075 523.494C388.363 513.786 393.971 496.934 403.679 491.222C413.387 485.51 426.448 491.377 432.16 501.085C437.872 510.793 434.633 523.293 424.925 529.006Z" fill="#A896D3"/>
</g>
<g opacity="0.5" filter="url(#filter3_i_3_22)">
<path d="M488.637 706.57C474.484 714.897 448.901 702.036 440.574 687.884C432.247 673.732 440.423 649.165 454.575 640.838C468.727 632.511 487.767 641.064 496.094 655.216C504.421 669.369 502.789 698.243 488.637 706.57Z" fill="#A896D3"/>
</g>
<g opacity="0.6" filter="url(#filter4_i_3_22)">
<path d="M166.865 814.004C185.111 821.551 213.424 801.955 220.972 783.708C228.519 765.462 214.672 737.575 196.425 730.028C178.179 722.48 156.937 735.852 149.39 754.099C141.842 772.345 148.619 806.456 166.865 814.004Z" fill="#C0B1E2"/>
</g>
<g opacity="0.7" filter="url(#filter5_i_3_22)">
<path d="M175.963 798.897C189.17 804.36 209.664 790.176 215.127 776.969C220.59 763.762 210.567 743.577 197.36 738.114C184.153 732.651 168.778 742.33 163.315 755.537C157.852 768.744 162.756 793.434 175.963 798.897Z" fill="#A896D3"/>
</g>
<g opacity="0.5" filter="url(#filter6_i_3_22)">
<path d="M603.768 363.507C582.473 386.572 566.651 374.027 542.979 352.17C519.308 330.314 507.15 302.775 528.446 279.71C549.742 256.646 583.067 256.849 606.738 278.705C630.41 300.562 625.064 340.443 603.768 363.507Z" fill="#C0B1E2"/>
</g>
<g opacity="0.7" filter="url(#filter7_i_3_22)">
<path d="M596.584 342.623C583.134 357.19 565.495 352.601 550.928 339.151C536.361 325.701 528.099 304.34 541.549 289.773C554.999 275.206 579.994 278.444 594.561 291.894C609.128 305.344 610.034 328.056 596.584 342.623Z" fill="#C0B1E2"/>
</g>
<g opacity="0.5" filter="url(#filter8_i_3_22)">
<path d="M648.584 738.743C617.786 742.973 613.587 723.423 609.247 691.816C604.906 660.208 612.945 631.503 643.742 627.274C674.539 623.044 699.888 644.175 704.228 675.782C708.569 707.39 679.381 734.514 648.584 738.743Z" fill="#E6D7FF"/>
</g>
<g opacity="0.7" filter="url(#filter9_i_3_22)">
<path d="M656.235 718.256C636.784 720.927 626.188 706.316 623.517 686.866C620.846 667.415 627.975 645.885 647.426 643.214C666.876 640.543 683.947 658.75 686.618 678.2C689.289 697.651 675.686 715.585 656.235 718.256Z" fill="#C0B1E2"/>
</g>
<g opacity="0.7" filter="url(#filter10_i_3_22)">
<path d="M273.783 623.359C267.31 630.37 258.82 628.161 251.808 621.687C244.797 615.214 240.821 604.933 247.294 597.921C253.768 590.91 265.798 592.468 272.81 598.942C279.821 605.415 280.257 616.347 273.783 623.359Z" fill="#A896D3"/>
</g>
<g opacity="0.7" filter="url(#filter11_i_3_22)">
<path d="M723.058 466.513C708.391 473.962 695.995 465.3 688.546 450.633C681.097 435.966 680.836 416.965 695.503 409.516C710.171 402.067 728.679 411.8 736.128 426.467C743.577 441.135 737.726 459.064 723.058 466.513Z" fill="#E6D7FF"/>
</g>
<g opacity="0.7" filter="url(#filter12_i_3_22)">
<path d="M746.707 374.639C732.04 382.088 719.644 373.427 712.194 358.759C704.745 344.092 704.485 325.091 719.152 317.642C733.82 310.193 752.328 319.926 759.777 334.594C767.226 349.261 761.375 367.19 746.707 374.639Z" fill="#E6D7FF"/>
</g>
<g opacity="0.5" filter="url(#filter13_i_3_22)">
<path d="M256.542 391.944C240.722 415.245 249.229 437.263 273.143 453.499C297.058 469.735 329.269 464.008 345.089 440.707C360.909 417.406 353.95 388.329 330.035 372.093C306.121 355.856 272.362 368.643 256.542 391.944Z" fill="#C0B1E2"/>
</g>
<g opacity="0.7" filter="url(#filter14_i_3_22)">
<path d="M276.252 393.971C266.261 408.688 267.076 433.158 281.792 443.15C296.509 453.142 323.638 446.021 333.63 431.305C343.621 416.588 335.706 395.407 320.99 385.416C306.273 375.424 286.244 379.255 276.252 393.971Z" fill="#A896D3"/>
</g>
<g opacity="0.7" filter="url(#filter15_i_3_22)">
<path d="M164.604 431.445C161.529 435.975 161.78 443.507 166.309 446.583C170.839 449.658 179.189 447.466 182.265 442.937C185.34 438.407 182.904 431.888 178.374 428.812C173.845 425.737 167.679 426.916 164.604 431.445Z" fill="#A896D3"/>
</g>
<g opacity="0.7" filter="url(#filter16_i_3_22)">
<path d="M287.639 289.947C284.7 294.276 284.94 301.473 289.268 304.412C293.596 307.35 301.576 305.256 304.514 300.928C307.453 296.599 305.125 290.37 300.797 287.431C296.468 284.492 290.577 285.619 287.639 289.947Z" fill="#C0B1E2"/>
</g>
<g opacity="0.7" filter="url(#filter17_i_3_22)">
<path d="M160.258 188.586C157.319 192.914 157.559 200.112 161.887 203.05C166.215 205.989 174.195 203.895 177.133 199.566C180.072 195.238 177.744 189.008 173.416 186.07C169.087 183.131 163.196 184.257 160.258 188.586Z" fill="#A896D3"/>
</g>
<g opacity="0.7" filter="url(#filter18_i_3_22)">
<path d="M702.538 719.231C699.599 723.559 699.839 730.757 704.167 733.695C708.496 736.634 716.475 734.54 719.414 730.211C722.353 725.883 720.025 719.653 715.696 716.715C711.368 713.776 705.477 714.902 702.538 719.231Z" fill="#C0B1E2"/>
</g>
<g opacity="0.7" filter="url(#filter19_i_3_22)">
<path d="M714.119 598.128C711.18 602.457 711.42 609.654 715.748 612.593C720.076 615.531 728.056 613.437 730.994 609.109C733.933 604.78 731.605 598.551 727.277 595.612C722.948 592.673 717.057 593.8 714.119 598.128Z" fill="#C0B1E2"/>
</g>
<g opacity="0.7" filter="url(#filter20_i_3_22)">
<path d="M304.851 747.407C301.912 751.735 302.152 758.933 306.48 761.872C310.808 764.81 318.788 762.716 321.726 758.388C324.665 754.059 322.337 747.83 318.009 744.891C313.68 741.952 307.789 743.079 304.851 747.407Z" fill="#A896D3"/>
</g>
<g opacity="0.8">
<g opacity="0.5" filter="url(#filter21_i_3_22)">
<path d="M550.592 460.117C511.858 482.582 508.856 519.99 531.912 559.743C554.967 599.496 605.058 613.512 643.792 591.047C682.526 568.582 692.615 522.131 669.559 482.378C646.503 442.625 589.326 437.653 550.592 460.117Z" fill="#E6D7FF"/>
</g>
<g opacity="0.7" filter="url(#filter22_i_3_22)">
<path d="M577.428 476.617C552.964 490.805 537.252 526.42 551.44 550.883C565.628 575.347 609.401 583.862 633.864 569.674C658.328 555.486 661.601 519.686 647.413 495.222C633.225 470.759 601.891 462.429 577.428 476.617Z" fill="#C0B1E2"/>
</g>
<g opacity="0.7" filter="url(#filter23_i_3_22)">
<path d="M574.685 501.073C561.048 508.982 552.29 528.835 560.199 542.472C568.107 556.108 592.508 560.855 606.144 552.946C619.781 545.037 621.606 525.081 613.697 511.444C605.788 497.808 588.322 493.164 574.685 501.073Z" fill="#A896D3"/>
</g>
<g opacity="0.7" filter="url(#filter24_i_3_22)">
<path d="M513.446 396.571C504.542 401.735 498.824 414.698 503.988 423.602C509.152 432.506 525.083 435.605 533.987 430.441C542.891 425.277 544.082 412.247 538.919 403.343C533.755 394.439 522.35 391.407 513.446 396.571Z" fill="#C0B1E2"/>
</g>
</g>
<g opacity="0.8">
<g opacity="0.5" filter="url(#filter25_i_3_22)">
<path d="M458.139 118.672C450.525 71.3593 414.291 54.0322 365.734 61.8466C317.177 69.6611 283.985 114.35 291.599 161.663C299.214 208.975 341.77 236.848 390.327 229.034C438.884 221.219 465.753 165.984 458.139 118.672Z" fill="#E6D7FF"/>
</g>
<g opacity="0.7" filter="url(#filter26_i_3_22)">
<path d="M431.371 139.17C426.562 109.289 396.989 79.9458 367.107 84.7547C337.226 89.5636 311.951 130.046 316.76 159.927C321.569 189.809 356.092 206.792 385.973 201.983C415.855 197.174 436.18 169.052 431.371 139.17Z" fill="#C0B1E2"/>
</g>
<g opacity="0.7" filter="url(#filter27_i_3_22)">
<path d="M407.983 127.063C405.302 110.406 388.817 94.0492 372.16 96.7298C355.503 99.4105 341.415 121.977 344.095 138.633C346.776 155.29 366.02 164.757 382.676 162.076C399.333 159.396 410.663 143.719 407.983 127.063Z" fill="#A896D3"/>
</g>
</g>
<g opacity="0.8">
<g opacity="0.5" filter="url(#filter28_i_3_22)">
<path d="M226.525 254.295C200.494 246.562 182.745 260.809 174.808 287.525C166.871 314.241 181.54 342.168 207.571 349.902C233.602 357.635 258.29 342.75 266.227 316.034C274.164 289.317 252.556 262.028 226.525 254.295Z" fill="#E6D7FF"/>
</g>
<g opacity="0.7" filter="url(#filter29_i_3_22)">
<path d="M230.417 273C213.976 268.115 191.728 276.01 186.843 292.451C181.959 308.892 196.424 331.743 212.865 336.627C229.305 341.511 246.458 328.053 251.342 311.612C256.227 295.171 246.858 277.884 230.417 273Z" fill="#C0B1E2"/>
</g>
<g opacity="0.7" filter="url(#filter30_i_3_22)">
<path d="M218.489 281.97C209.325 279.247 196.922 283.648 194.2 292.812C191.477 301.977 199.54 314.715 208.705 317.437C217.869 320.16 227.431 312.658 230.153 303.493C232.876 294.329 227.654 284.692 218.489 281.97Z" fill="#A896D3"/>
</g>
</g>
<g opacity="0.5" filter="url(#filter31_i_3_22)">
<path d="M85.5958 546.239C90.2962 576.153 113.151 587.188 143.853 582.363C174.555 577.539 195.634 549.378 190.933 519.463C186.233 489.549 159.407 471.836 128.705 476.66C98.0032 481.484 80.8954 516.324 85.5958 546.239Z" fill="#E6D7FF"/>
</g>
<g opacity="0.7" filter="url(#filter32_i_3_22)">
<path d="M102.557 533.348C105.526 552.242 124.145 570.853 143.038 567.884C161.932 564.916 177.998 539.394 175.029 520.501C172.06 501.607 150.285 490.795 131.392 493.763C112.498 496.732 99.5887 514.455 102.557 533.348Z" fill="#C0B1E2"/>
</g>
<g opacity="0.5" filter="url(#filter33_i_3_22)">
<path d="M518.059 139.11C501.079 164.12 510.21 187.753 535.879 205.18C561.547 222.607 596.121 216.46 613.101 191.45C630.082 166.44 622.612 135.23 596.944 117.803C571.275 100.375 535.04 114.099 518.059 139.11Z" fill="#C0B1E2"/>
</g>
<g opacity="0.7" filter="url(#filter34_i_3_22)">
<path d="M539.215 141.285C528.491 157.081 529.365 183.347 545.161 194.072C560.957 204.796 590.077 197.154 600.801 181.358C611.526 165.562 603.03 142.827 587.234 132.103C571.438 121.378 549.939 125.489 539.215 141.285Z" fill="#A896D3"/>
</g>
<circle cx="387.748" cy="575.049" r="7.24396" transform="rotate(-4 387.748 575.049)" fill="#A896D3"/>
<circle cx="372.841" cy="361.873" r="7.24396" transform="rotate(-4 372.841 361.873)" fill="#C0B1E2"/>
<circle cx="298.173" cy="519.93" r="7.24396" transform="rotate(-4 298.173 519.93)" fill="#A896D3"/>
<circle cx="355.441" cy="320.729" r="7.24396" transform="rotate(-4 355.441 320.729)" fill="#C0B1E2"/>
<circle cx="371.578" cy="689.97" r="7.24396" transform="rotate(-4 371.578 689.97)" fill="#A896D3"/>
<circle cx="579.522" cy="721.395" r="7.24396" transform="rotate(-4 579.522 721.395)" fill="#A896D3"/>
<circle cx="506.67" cy="544.948" r="7.24396" transform="rotate(-4 506.67 544.948)" fill="#C0B1E2"/>
<circle cx="451.558" cy="271.148" r="7.24396" transform="rotate(-4 451.558 271.148)" fill="#C0B1E2"/>
<circle cx="385.693" cy="337.978" r="7.24396" transform="rotate(-4 385.693 337.978)" fill="#C0B1E2"/>
<circle cx="231.599" cy="418.95" r="7.24396" transform="rotate(-4 231.599 418.95)" fill="#A896D3"/>
<circle cx="667.226" cy="195.824" r="7.24396" transform="rotate(-4 667.226 195.824)" fill="#A896D3"/>
<g opacity="0.8">
<g opacity="0.5" filter="url(#filter35_i_3_22)">
<path d="M91.9141 290.908C73.4857 285.434 60.9209 295.52 55.3021 314.433C49.6833 333.346 60.0675 353.117 78.4959 358.591C96.9242 364.066 114.401 353.528 120.02 334.615C125.639 315.702 110.342 296.383 91.9141 290.908Z" fill="#E6D7FF"/>
</g>
</g>
<g filter="url(#filter36_f_3_22)">
<path d="M338.58 40.0723C140.295 344.795 366.149 746.759 729.543 735.888L846.055 732.403L-179.954 799.76L338.58 40.0723Z" fill="url(#paint1_linear_3_22)" fill-opacity="0.4"/>
</g>
<g opacity="0.2" filter="url(#filter37_f_3_22)">
<path d="M409.362 862.968C682.579 623.123 573.682 175.098 220.857 87.4187L107.733 59.3066L1113.8 271.56L409.362 862.968Z" fill="white"/>
</g>
</g>
</g>
<defs>
<filter id="filter0_d_3_22" x="0" y="0" width="880.392" height="880.393" filterUnits="userSpaceOnUse" color-interpolation-filters="sRGB">
<feFlood flood-opacity="0" result="BackgroundImageFix"/>
<feColorMatrix in="SourceAlpha" type="matrix" values="0 0 0 0 0 0 0 0 0 0 0 0 0 0 0 0 0 0 127 0" result="hardAlpha"/>
<feMorphology radius="20" operator="dilate" in="SourceAlpha" result="effect1_dropShadow_3_22"/>
<feOffset dy="4"/>
<feGaussianBlur stdDeviation="50"/>
<feComposite in2="hardAlpha" operator="out"/>
<feColorMatrix type="matrix" values="0 0 0 0 0.651 0 0 0 0 0.561337 0 0 0 0 0.904167 0 0 0 0.3 0"/>
<feBlend mode="normal" in2="BackgroundImageFix" result="effect1_dropShadow_3_22"/>
<feBlend mode="normal" in="SourceGraphic" in2="effect1_dropShadow_3_22" result="shape"/>
</filter>
<filter id="filter1_i_3_22" x="382.496" y="479.261" width="62.1257" height="70.1138" filterUnits="userSpaceOnUse" color-interpolation-filters="sRGB">
<feFlood flood-opacity="0" result="BackgroundImageFix"/>
<feBlend mode="normal" in="SourceGraphic" in2="BackgroundImageFix" result="shape"/>
<feColorMatrix in="SourceAlpha" type="matrix" values="0 0 0 0 0 0 0 0 0 0 0 0 0 0 0 0 0 0 127 0" result="hardAlpha"/>
<feOffset dy="3.66408"/>
<feGaussianBlur stdDeviation="3.66408"/>
<feComposite in2="hardAlpha" operator="arithmetic" k2="-1" k3="1"/>
<feColorMatrix type="matrix" values="0 0 0 0 0.356863 0 0 0 0 0.262745 0 0 0 0 0.623529 0 0 0 0.5 0"/>
<feBlend mode="normal" in2="shape" result="effect1_innerShadow_3_22"/>
</filter>
<filter id="filter2_i_3_22" x="391.781" y="488.975" width="43.2" height="47.023" filterUnits="userSpaceOnUse" color-interpolation-filters="sRGB">
<feFlood flood-opacity="0" result="BackgroundImageFix"/>
<feBlend mode="normal" in="SourceGraphic" in2="BackgroundImageFix" result="shape"/>
<feColorMatrix in="SourceAlpha" type="matrix" values="0 0 0 0 0 0 0 0 0 0 0 0 0 0 0 0 0 0 127 0" result="hardAlpha"/>
<feOffset dy="3.66408"/>
<feGaussianBlur stdDeviation="3.66408"/>
<feComposite in2="hardAlpha" operator="arithmetic" k2="-1" k3="1"/>
<feColorMatrix type="matrix" values="0 0 0 0 0.356863 0 0 0 0 0.262745 0 0 0 0 0.623529 0 0 0 0.5 0"/>
<feBlend mode="normal" in2="shape" result="effect1_innerShadow_3_22"/>
</filter>
<filter id="filter3_i_3_22" x="437.229" y="637.562" width="63.9133" height="75.3028" filterUnits="userSpaceOnUse" color-interpolation-filters="sRGB">
<feFlood flood-opacity="0" result="BackgroundImageFix"/>
<feBlend mode="normal" in="SourceGraphic" in2="BackgroundImageFix" result="shape"/>
<feColorMatrix in="SourceAlpha" type="matrix" values="0 0 0 0 0 0 0 0 0 0 0 0 0 0 0 0 0 0 127 0" result="hardAlpha"/>
<feOffset dy="3.66408"/>
<feGaussianBlur stdDeviation="3.66408"/>
<feComposite in2="hardAlpha" operator="arithmetic" k2="-1" k3="1"/>
<feColorMatrix type="matrix" values="0 0 0 0 0.356863 0 0 0 0 0.262745 0 0 0 0 0.623529 0 0 0 0.5 0"/>
<feBlend mode="normal" in2="shape" result="effect1_innerShadow_3_22"/>
</filter>
<filter id="filter4_i_3_22" x="146.353" y="727.88" width="76.7207" height="91.4483" filterUnits="userSpaceOnUse" color-interpolation-filters="sRGB">
<feFlood flood-opacity="0" result="BackgroundImageFix"/>
<feBlend mode="normal" in="SourceGraphic" in2="BackgroundImageFix" result="shape"/>
<feColorMatrix in="SourceAlpha" type="matrix" values="0 0 0 0 0 0 0 0 0 0 0 0 0 0 0 0 0 0 127 0" result="hardAlpha"/>
<feOffset dy="3.66408"/>
<feGaussianBlur stdDeviation="3.66408"/>
<feComposite in2="hardAlpha" operator="arithmetic" k2="-1" k3="1"/>
<feColorMatrix type="matrix" values="0 0 0 0 0.356863 0 0 0 0 0.262745 0 0 0 0 0.623529 0 0 0 0.5 0"/>
<feBlend mode="normal" in2="shape" result="effect1_innerShadow_3_22"/>
</filter>
<filter id="filter5_i_3_22" x="161.116" y="736.559" width="55.5315" height="67.2036" filterUnits="userSpaceOnUse" color-interpolation-filters="sRGB">
<feFlood flood-opacity="0" result="BackgroundImageFix"/>
<feBlend mode="normal" in="SourceGraphic" in2="BackgroundImageFix" result="shape"/>
<feColorMatrix in="SourceAlpha" type="matrix" values="0 0 0 0 0 0 0 0 0 0 0 0 0 0 0 0 0 0 127 0" result="hardAlpha"/>
<feOffset dy="3.66408"/>
<feGaussianBlur stdDeviation="3.66408"/>
<feComposite in2="hardAlpha" operator="arithmetic" k2="-1" k3="1"/>
<feColorMatrix type="matrix" values="0 0 0 0 0.356863 0 0 0 0 0.262745 0 0 0 0 0.623529 0 0 0 0.5 0"/>
<feBlend mode="normal" in2="shape" result="effect1_innerShadow_3_22"/>
</filter>
<filter id="filter6_i_3_22" x="517.429" y="262.361" width="104.83" height="117.122" filterUnits="userSpaceOnUse" color-interpolation-filters="sRGB">
<feFlood flood-opacity="0" result="BackgroundImageFix"/>
<feBlend mode="normal" in="SourceGraphic" in2="BackgroundImageFix" result="shape"/>
<feColorMatrix in="SourceAlpha" type="matrix" values="0 0 0 0 0 0 0 0 0 0 0 0 0 0 0 0 0 0 127 0" result="hardAlpha"/>
<feOffset dy="3.66408"/>
<feGaussianBlur stdDeviation="3.66408"/>
<feComposite in2="hardAlpha" operator="arithmetic" k2="-1" k3="1"/>
<feColorMatrix type="matrix" values="0 0 0 0 0.356863 0 0 0 0 0.262745 0 0 0 0 0.623529 0 0 0 0.5 0"/>
<feBlend mode="normal" in2="shape" result="effect1_innerShadow_3_22"/>
</filter>
<filter id="filter7_i_3_22" x="534.744" y="280.232" width="71.3633" height="75.0396" filterUnits="userSpaceOnUse" color-interpolation-filters="sRGB">
<feFlood flood-opacity="0" result="BackgroundImageFix"/>
<feBlend mode="normal" in="SourceGraphic" in2="BackgroundImageFix" result="shape"/>
<feColorMatrix in="SourceAlpha" type="matrix" values="0 0 0 0 0 0 0 0 0 0 0 0 0 0 0 0 0 0 127 0" result="hardAlpha"/>
<feOffset dy="3.66408"/>
<feGaussianBlur stdDeviation="3.66408"/>
<feComposite in2="hardAlpha" operator="arithmetic" k2="-1" k3="1"/>
<feColorMatrix type="matrix" values="0 0 0 0 0.356863 0 0 0 0 0.262745 0 0 0 0 0.623529 0 0 0 0.5 0"/>
<feBlend mode="normal" in2="shape" result="effect1_innerShadow_3_22"/>
</filter>
<filter id="filter8_i_3_22" x="608.156" y="626.736" width="96.5029" height="116.244" filterUnits="userSpaceOnUse" color-interpolation-filters="sRGB">
<feFlood flood-opacity="0" result="BackgroundImageFix"/>
<feBlend mode="normal" in="SourceGraphic" in2="BackgroundImageFix" result="shape"/>
<feColorMatrix in="SourceAlpha" type="matrix" values="0 0 0 0 0 0 0 0 0 0 0 0 0 0 0 0 0 0 127 0" result="hardAlpha"/>
<feOffset dy="3.66408"/>
<feGaussianBlur stdDeviation="3.66408"/>
<feComposite in2="hardAlpha" operator="arithmetic" k2="-1" k3="1"/>
<feColorMatrix type="matrix" values="0 0 0 0 0.356863 0 0 0 0 0.262745 0 0 0 0 0.623529 0 0 0 0.5 0"/>
<feBlend mode="normal" in2="shape" result="effect1_innerShadow_3_22"/>
</filter>
<filter id="filter9_i_3_22" x="622.978" y="642.952" width="63.9751" height="79.2832" filterUnits="userSpaceOnUse" color-interpolation-filters="sRGB">
<feFlood flood-opacity="0" result="BackgroundImageFix"/>
<feBlend mode="normal" in="SourceGraphic" in2="BackgroundImageFix" result="shape"/>
<feColorMatrix in="SourceAlpha" type="matrix" values="0 0 0 0 0 0 0 0 0 0 0 0 0 0 0 0 0 0 127 0" result="hardAlpha"/>
<feOffset dy="3.66408"/>
<feGaussianBlur stdDeviation="3.66408"/>
<feComposite in2="hardAlpha" operator="arithmetic" k2="-1" k3="1"/>
<feColorMatrix type="matrix" values="0 0 0 0 0.356863 0 0 0 0 0.262745 0 0 0 0 0.623529 0 0 0 0.5 0"/>
<feBlend mode="normal" in2="shape" result="effect1_innerShadow_3_22"/>
</filter>
<filter id="filter10_i_3_22" x="244.019" y="593.329" width="34.3481" height="38.0181" filterUnits="userSpaceOnUse" color-interpolation-filters="sRGB">
<feFlood flood-opacity="0" result="BackgroundImageFix"/>
<feBlend mode="normal" in="SourceGraphic" in2="BackgroundImageFix" result="shape"/>
<feColorMatrix in="SourceAlpha" type="matrix" values="0 0 0 0 0 0 0 0 0 0 0 0 0 0 0 0 0 0 127 0" result="hardAlpha"/>
<feOffset dy="3.66408"/>
<feGaussianBlur stdDeviation="3.66408"/>
<feComposite in2="hardAlpha" operator="arithmetic" k2="-1" k3="1"/>
<feColorMatrix type="matrix" values="0 0 0 0 0.356863 0 0 0 0 0.262745 0 0 0 0 0.623529 0 0 0 0.5 0"/>
<feBlend mode="normal" in2="shape" result="effect1_innerShadow_3_22"/>
</filter>
<filter id="filter11_i_3_22" x="683.537" y="406.952" width="55.8262" height="65.9492" filterUnits="userSpaceOnUse" color-interpolation-filters="sRGB">
<feFlood flood-opacity="0" result="BackgroundImageFix"/>
<feBlend mode="normal" in="SourceGraphic" in2="BackgroundImageFix" result="shape"/>
<feColorMatrix in="SourceAlpha" type="matrix" values="0 0 0 0 0 0 0 0 0 0 0 0 0 0 0 0 0 0 127 0" result="hardAlpha"/>
<feOffset dy="3.66408"/>
<feGaussianBlur stdDeviation="3.66408"/>
<feComposite in2="hardAlpha" operator="arithmetic" k2="-1" k3="1"/>
<feColorMatrix type="matrix" values="0 0 0 0 0.356863 0 0 0 0 0.262745 0 0 0 0 0.623529 0 0 0 0.5 0"/>
<feBlend mode="normal" in2="shape" result="effect1_innerShadow_3_22"/>
</filter>
<filter id="filter12_i_3_22" x="707.186" y="315.078" width="55.8262" height="65.9492" filterUnits="userSpaceOnUse" color-interpolation-filters="sRGB">
<feFlood flood-opacity="0" result="BackgroundImageFix"/>
<feBlend mode="normal" in="SourceGraphic" in2="BackgroundImageFix" result="shape"/>
<feColorMatrix in="SourceAlpha" type="matrix" values="0 0 0 0 0 0 0 0 0 0 0 0 0 0 0 0 0 0 127 0" result="hardAlpha"/>
<feOffset dy="3.66408"/>
<feGaussianBlur stdDeviation="3.66408"/>
<feComposite in2="hardAlpha" operator="arithmetic" k2="-1" k3="1"/>
<feColorMatrix type="matrix" values="0 0 0 0 0.356863 0 0 0 0 0.262745 0 0 0 0 0.623529 0 0 0 0.5 0"/>
<feBlend mode="normal" in2="shape" result="effect1_innerShadow_3_22"/>
</filter>
<filter id="filter13_i_3_22" x="248.488" y="364.809" width="105.103" height="101.591" filterUnits="userSpaceOnUse" color-interpolation-filters="sRGB">
<feFlood flood-opacity="0" result="BackgroundImageFix"/>
<feBlend mode="normal" in="SourceGraphic" in2="BackgroundImageFix" result="shape"/>
<feColorMatrix in="SourceAlpha" type="matrix" values="0 0 0 0 0 0 0 0 0 0 0 0 0 0 0 0 0 0 127 0" result="hardAlpha"/>
<feOffset dy="3.66408"/>
<feGaussianBlur stdDeviation="3.66408"/>
<feComposite in2="hardAlpha" operator="arithmetic" k2="-1" k3="1"/>
<feColorMatrix type="matrix" values="0 0 0 0 0.356863 0 0 0 0 0.262745 0 0 0 0 0.623529 0 0 0 0.5 0"/>
<feBlend mode="normal" in2="shape" result="effect1_innerShadow_3_22"/>
</filter>
<filter id="filter14_i_3_22" x="269.603" y="379.852" width="68.4878" height="71.6094" filterUnits="userSpaceOnUse" color-interpolation-filters="sRGB">
<feFlood flood-opacity="0" result="BackgroundImageFix"/>
<feBlend mode="normal" in="SourceGraphic" in2="BackgroundImageFix" result="shape"/>
<feColorMatrix in="SourceAlpha" type="matrix" values="0 0 0 0 0 0 0 0 0 0 0 0 0 0 0 0 0 0 127 0" result="hardAlpha"/>
<feOffset dy="3.66408"/>
<feGaussianBlur stdDeviation="3.66408"/>
<feComposite in2="hardAlpha" operator="arithmetic" k2="-1" k3="1"/>
<feColorMatrix type="matrix" values="0 0 0 0 0.356863 0 0 0 0 0.262745 0 0 0 0 0.623529 0 0 0 0.5 0"/>
<feBlend mode="normal" in2="shape" result="effect1_innerShadow_3_22"/>
</filter>
<filter id="filter15_i_3_22" x="162.557" y="427.1" width="21.0806" height="22.5658" filterUnits="userSpaceOnUse" color-interpolation-filters="sRGB">
<feFlood flood-opacity="0" result="BackgroundImageFix"/>
<feBlend mode="normal" in="SourceGraphic" in2="BackgroundImageFix" result="shape"/>
<feColorMatrix in="SourceAlpha" type="matrix" values="0 0 0 0 0 0 0 0 0 0 0 0 0 0 0 0 0 0 127 0" result="hardAlpha"/>
<feOffset dy="1.65225"/>
<feGaussianBlur stdDeviation="1.65225"/>
<feComposite in2="hardAlpha" operator="arithmetic" k2="-1" k3="1"/>
<feColorMatrix type="matrix" values="0 0 0 0 0.403922 0 0 0 0 0.309804 0 0 0 0 0.0156863 0 0 0 0.25 0"/>
<feBlend mode="normal" in2="shape" result="effect1_innerShadow_3_22"/>
</filter>
<filter id="filter16_i_3_22" x="285.683" y="285.794" width="20.1436" height="23.648" filterUnits="userSpaceOnUse" color-interpolation-filters="sRGB">
<feFlood flood-opacity="0" result="BackgroundImageFix"/>
<feBlend mode="normal" in="SourceGraphic" in2="BackgroundImageFix" result="shape"/>
<feColorMatrix in="SourceAlpha" type="matrix" values="0 0 0 0 0 0 0 0 0 0 0 0 0 0 0 0 0 0 127 0" result="hardAlpha"/>
<feOffset dy="3.66408"/>
<feGaussianBlur stdDeviation="3.66408"/>
<feComposite in2="hardAlpha" operator="arithmetic" k2="-1" k3="1"/>
<feColorMatrix type="matrix" values="0 0 0 0 0.356863 0 0 0 0 0.262745 0 0 0 0 0.623529 0 0 0 0.5 0"/>
<feBlend mode="normal" in2="shape" result="effect1_innerShadow_3_22"/>
</filter>
<filter id="filter17_i_3_22" x="158.302" y="184.433" width="20.1436" height="23.648" filterUnits="userSpaceOnUse" color-interpolation-filters="sRGB">
<feFlood flood-opacity="0" result="BackgroundImageFix"/>
<feBlend mode="normal" in="SourceGraphic" in2="BackgroundImageFix" result="shape"/>
<feColorMatrix in="SourceAlpha" type="matrix" values="0 0 0 0 0 0 0 0 0 0 0 0 0 0 0 0 0 0 127 0" result="hardAlpha"/>
<feOffset dy="3.66408"/>
<feGaussianBlur stdDeviation="3.66408"/>
<feComposite in2="hardAlpha" operator="arithmetic" k2="-1" k3="1"/>
<feColorMatrix type="matrix" values="0 0 0 0 0.356863 0 0 0 0 0.262745 0 0 0 0 0.623529 0 0 0 0.5 0"/>
<feBlend mode="normal" in2="shape" result="effect1_innerShadow_3_22"/>
</filter>
<filter id="filter18_i_3_22" x="700.582" y="715.078" width="20.1436" height="23.648" filterUnits="userSpaceOnUse" color-interpolation-filters="sRGB">
<feFlood flood-opacity="0" result="BackgroundImageFix"/>
<feBlend mode="normal" in="SourceGraphic" in2="BackgroundImageFix" result="shape"/>
<feColorMatrix in="SourceAlpha" type="matrix" values="0 0 0 0 0 0 0 0 0 0 0 0 0 0 0 0 0 0 127 0" result="hardAlpha"/>
<feOffset dy="3.66408"/>
<feGaussianBlur stdDeviation="3.66408"/>
<feComposite in2="hardAlpha" operator="arithmetic" k2="-1" k3="1"/>
<feColorMatrix type="matrix" values="0 0 0 0 0.356863 0 0 0 0 0.262745 0 0 0 0 0.623529 0 0 0 0.5 0"/>
<feBlend mode="normal" in2="shape" result="effect1_innerShadow_3_22"/>
</filter>
<filter id="filter19_i_3_22" x="712.163" y="593.976" width="20.1436" height="23.648" filterUnits="userSpaceOnUse" color-interpolation-filters="sRGB">
<feFlood flood-opacity="0" result="BackgroundImageFix"/>
<feBlend mode="normal" in="SourceGraphic" in2="BackgroundImageFix" result="shape"/>
<feColorMatrix in="SourceAlpha" type="matrix" values="0 0 0 0 0 0 0 0 0 0 0 0 0 0 0 0 0 0 127 0" result="hardAlpha"/>
<feOffset dy="3.66408"/>
<feGaussianBlur stdDeviation="3.66408"/>
<feComposite in2="hardAlpha" operator="arithmetic" k2="-1" k3="1"/>
<feColorMatrix type="matrix" values="0 0 0 0 0.356863 0 0 0 0 0.262745 0 0 0 0 0.623529 0 0 0 0.5 0"/>
<feBlend mode="normal" in2="shape" result="effect1_innerShadow_3_22"/>
</filter>
<filter id="filter20_i_3_22" x="302.895" y="743.254" width="20.1436" height="23.648" filterUnits="userSpaceOnUse" color-interpolation-filters="sRGB">
<feFlood flood-opacity="0" result="BackgroundImageFix"/>
<feBlend mode="normal" in="SourceGraphic" in2="BackgroundImageFix" result="shape"/>
<feColorMatrix in="SourceAlpha" type="matrix" values="0 0 0 0 0 0 0 0 0 0 0 0 0 0 0 0 0 0 127 0" result="hardAlpha"/>
<feOffset dy="3.66408"/>
<feGaussianBlur stdDeviation="3.66408"/>
<feComposite in2="hardAlpha" operator="arithmetic" k2="-1" k3="1"/>
<feColorMatrix type="matrix" values="0 0 0 0 0.356863 0 0 0 0 0.262745 0 0 0 0 0.623529 0 0 0 0.5 0"/>
<feBlend mode="normal" in2="shape" result="effect1_innerShadow_3_22"/>
</filter>
<filter id="filter21_i_3_22" x="517.361" y="446.789" width="164.423" height="158.635" filterUnits="userSpaceOnUse" color-interpolation-filters="sRGB">
<feFlood flood-opacity="0" result="BackgroundImageFix"/>
<feBlend mode="normal" in="SourceGraphic" in2="BackgroundImageFix" result="shape"/>
<feColorMatrix in="SourceAlpha" type="matrix" values="0 0 0 0 0 0 0 0 0 0 0 0 0 0 0 0 0 0 127 0" result="hardAlpha"/>
<feOffset dy="3.66408"/>
<feGaussianBlur stdDeviation="3.66408"/>
<feComposite in2="hardAlpha" operator="arithmetic" k2="-1" k3="1"/>
<feColorMatrix type="matrix" values="0 0 0 0 0.356863 0 0 0 0 0.262745 0 0 0 0 0.623529 0 0 0 0.5 0"/>
<feBlend mode="normal" in2="shape" result="effect1_innerShadow_3_22"/>
</filter>
<filter id="filter22_i_3_22" x="546.065" y="469.698" width="109.759" height="110.512" filterUnits="userSpaceOnUse" color-interpolation-filters="sRGB">
<feFlood flood-opacity="0" result="BackgroundImageFix"/>
<feBlend mode="normal" in="SourceGraphic" in2="BackgroundImageFix" result="shape"/>
<feColorMatrix in="SourceAlpha" type="matrix" values="0 0 0 0 0 0 0 0 0 0 0 0 0 0 0 0 0 0 127 0" result="hardAlpha"/>
<feOffset dy="3.66408"/>
<feGaussianBlur stdDeviation="3.66408"/>
<feComposite in2="hardAlpha" operator="arithmetic" k2="-1" k3="1"/>
<feColorMatrix type="matrix" values="0 0 0 0 0.356863 0 0 0 0 0.262745 0 0 0 0 0.623529 0 0 0 0.5 0"/>
<feBlend mode="normal" in2="shape" result="effect1_innerShadow_3_22"/>
</filter>
<filter id="filter23_i_3_22" x="557.203" y="497.216" width="61.1829" height="63.2241" filterUnits="userSpaceOnUse" color-interpolation-filters="sRGB">
<feFlood flood-opacity="0" result="BackgroundImageFix"/>
<feBlend mode="normal" in="SourceGraphic" in2="BackgroundImageFix" result="shape"/>
<feColorMatrix in="SourceAlpha" type="matrix" values="0 0 0 0 0 0 0 0 0 0 0 0 0 0 0 0 0 0 127 0" result="hardAlpha"/>
<feOffset dy="3.66408"/>
<feGaussianBlur stdDeviation="3.66408"/>
<feComposite in2="hardAlpha" operator="arithmetic" k2="-1" k3="1"/>
<feColorMatrix type="matrix" values="0 0 0 0 0.356863 0 0 0 0 0.262745 0 0 0 0 0.623529 0 0 0 0.5 0"/>
<feBlend mode="normal" in2="shape" result="effect1_innerShadow_3_22"/>
</filter>
<filter id="filter24_i_3_22" x="502.031" y="394.053" width="39.9485" height="42.5532" filterUnits="userSpaceOnUse" color-interpolation-filters="sRGB">
<feFlood flood-opacity="0" result="BackgroundImageFix"/>
<feBlend mode="normal" in="SourceGraphic" in2="BackgroundImageFix" result="shape"/>
<feColorMatrix in="SourceAlpha" type="matrix" values="0 0 0 0 0 0 0 0 0 0 0 0 0 0 0 0 0 0 127 0" result="hardAlpha"/>
<feOffset dy="3.66408"/>
<feGaussianBlur stdDeviation="3.66408"/>
<feComposite in2="hardAlpha" operator="arithmetic" k2="-1" k3="1"/>
<feColorMatrix type="matrix" values="0 0 0 0 0.356863 0 0 0 0 0.262745 0 0 0 0 0.623529 0 0 0 0.5 0"/>
<feBlend mode="normal" in2="shape" result="effect1_innerShadow_3_22"/>
</filter>
<filter id="filter25_i_3_22" x="290.512" y="60.043" width="168.905" height="173.96" filterUnits="userSpaceOnUse" color-interpolation-filters="sRGB">
<feFlood flood-opacity="0" result="BackgroundImageFix"/>
<feBlend mode="normal" in="SourceGraphic" in2="BackgroundImageFix" result="shape"/>
<feColorMatrix in="SourceAlpha" type="matrix" values="0 0 0 0 0 0 0 0 0 0 0 0 0 0 0 0 0 0 127 0" result="hardAlpha"/>
<feOffset dy="3.66408"/>
<feGaussianBlur stdDeviation="3.66408"/>
<feComposite in2="hardAlpha" operator="arithmetic" k2="-1" k3="1"/>
<feColorMatrix type="matrix" values="0 0 0 0 0.356863 0 0 0 0 0.262745 0 0 0 0 0.623529 0 0 0 0.5 0"/>
<feBlend mode="normal" in2="shape" result="effect1_innerShadow_3_22"/>
</filter>
<filter id="filter26_i_3_22" x="316.17" y="84.2344" width="115.906" height="122.221" filterUnits="userSpaceOnUse" color-interpolation-filters="sRGB">
<feFlood flood-opacity="0" result="BackgroundImageFix"/>
<feBlend mode="normal" in="SourceGraphic" in2="BackgroundImageFix" result="shape"/>
<feColorMatrix in="SourceAlpha" type="matrix" values="0 0 0 0 0 0 0 0 0 0 0 0 0 0 0 0 0 0 127 0" result="hardAlpha"/>
<feOffset dy="3.66408"/>
<feGaussianBlur stdDeviation="3.66408"/>
<feComposite in2="hardAlpha" operator="arithmetic" k2="-1" k3="1"/>
<feColorMatrix type="matrix" values="0 0 0 0 0.356863 0 0 0 0 0.262745 0 0 0 0 0.623529 0 0 0 0.5 0"/>
<feBlend mode="normal" in2="shape" result="effect1_innerShadow_3_22"/>
</filter>
<filter id="filter27_i_3_22" x="343.766" y="96.4399" width="64.6091" height="69.751" filterUnits="userSpaceOnUse" color-interpolation-filters="sRGB">
<feFlood flood-opacity="0" result="BackgroundImageFix"/>
<feBlend mode="normal" in="SourceGraphic" in2="BackgroundImageFix" result="shape"/>
<feColorMatrix in="SourceAlpha" type="matrix" values="0 0 0 0 0 0 0 0 0 0 0 0 0 0 0 0 0 0 127 0" result="hardAlpha"/>
<feOffset dy="3.66408"/>
<feGaussianBlur stdDeviation="3.66408"/>
<feComposite in2="hardAlpha" operator="arithmetic" k2="-1" k3="1"/>
<feColorMatrix type="matrix" values="0 0 0 0 0.356863 0 0 0 0 0.262745 0 0 0 0 0.623529 0 0 0 0.5 0"/>
<feBlend mode="normal" in2="shape" result="effect1_innerShadow_3_22"/>
</filter>
<filter id="filter28_i_3_22" x="172.653" y="252.199" width="95.2397" height="103.407" filterUnits="userSpaceOnUse" color-interpolation-filters="sRGB">
<feFlood flood-opacity="0" result="BackgroundImageFix"/>
<feBlend mode="normal" in="SourceGraphic" in2="BackgroundImageFix" result="shape"/>
<feColorMatrix in="SourceAlpha" type="matrix" values="0 0 0 0 0 0 0 0 0 0 0 0 0 0 0 0 0 0 127 0" result="hardAlpha"/>
<feOffset dy="3.66408"/>
<feGaussianBlur stdDeviation="3.66408"/>
<feComposite in2="hardAlpha" operator="arithmetic" k2="-1" k3="1"/>
<feColorMatrix type="matrix" values="0 0 0 0 0.356863 0 0 0 0 0.262745 0 0 0 0 0.623529 0 0 0 0.5 0"/>
<feBlend mode="normal" in2="shape" result="effect1_innerShadow_3_22"/>
</filter>
<filter id="filter29_i_3_22" x="185.88" y="271.568" width="66.7559" height="69.7378" filterUnits="userSpaceOnUse" color-interpolation-filters="sRGB">
<feFlood flood-opacity="0" result="BackgroundImageFix"/>
<feBlend mode="normal" in="SourceGraphic" in2="BackgroundImageFix" result="shape"/>
<feColorMatrix in="SourceAlpha" type="matrix" values="0 0 0 0 0 0 0 0 0 0 0 0 0 0 0 0 0 0 127 0" result="hardAlpha"/>
<feOffset dy="3.66408"/>
<feGaussianBlur stdDeviation="3.66408"/>
<feComposite in2="hardAlpha" operator="arithmetic" k2="-1" k3="1"/>
<feColorMatrix type="matrix" values="0 0 0 0 0.356863 0 0 0 0 0.262745 0 0 0 0 0.623529 0 0 0 0.5 0"/>
<feBlend mode="normal" in2="shape" result="effect1_innerShadow_3_22"/>
</filter>
<filter id="filter30_i_3_22" x="193.663" y="281.172" width="37.2119" height="40.4951" filterUnits="userSpaceOnUse" color-interpolation-filters="sRGB">
<feFlood flood-opacity="0" result="BackgroundImageFix"/>
<feBlend mode="normal" in="SourceGraphic" in2="BackgroundImageFix" result="shape"/>
<feColorMatrix in="SourceAlpha" type="matrix" values="0 0 0 0 0 0 0 0 0 0 0 0 0 0 0 0 0 0 127 0" result="hardAlpha"/>
<feOffset dy="3.66408"/>
<feGaussianBlur stdDeviation="3.66408"/>
<feComposite in2="hardAlpha" operator="arithmetic" k2="-1" k3="1"/>
<feColorMatrix type="matrix" values="0 0 0 0 0.356863 0 0 0 0 0.262745 0 0 0 0 0.623529 0 0 0 0.5 0"/>
<feBlend mode="normal" in2="shape" result="effect1_innerShadow_3_22"/>
</filter>
<filter id="filter31_i_3_22" x="84.8254" y="475.872" width="106.763" height="111.246" filterUnits="userSpaceOnUse" color-interpolation-filters="sRGB">
<feFlood flood-opacity="0" result="BackgroundImageFix"/>
<feBlend mode="normal" in="SourceGraphic" in2="BackgroundImageFix" result="shape"/>
<feColorMatrix in="SourceAlpha" type="matrix" values="0 0 0 0 0 0 0 0 0 0 0 0 0 0 0 0 0 0 127 0" result="hardAlpha"/>
<feOffset dy="3.66408"/>
<feGaussianBlur stdDeviation="3.66408"/>
<feComposite in2="hardAlpha" operator="arithmetic" k2="-1" k3="1"/>
<feColorMatrix type="matrix" values="0 0 0 0 0.356863 0 0 0 0 0.262745 0 0 0 0 0.623529 0 0 0 0.5 0"/>
<feBlend mode="normal" in2="shape" result="effect1_innerShadow_3_22"/>
</filter>
<filter id="filter32_i_3_22" x="102.133" y="493.276" width="73.2517" height="78.5855" filterUnits="userSpaceOnUse" color-interpolation-filters="sRGB">
<feFlood flood-opacity="0" result="BackgroundImageFix"/>
<feBlend mode="normal" in="SourceGraphic" in2="BackgroundImageFix" result="shape"/>
<feColorMatrix in="SourceAlpha" type="matrix" values="0 0 0 0 0 0 0 0 0 0 0 0 0 0 0 0 0 0 127 0" result="hardAlpha"/>
<feOffset dy="3.66408"/>
<feGaussianBlur stdDeviation="3.66408"/>
<feComposite in2="hardAlpha" operator="arithmetic" k2="-1" k3="1"/>
<feColorMatrix type="matrix" values="0 0 0 0 0.356863 0 0 0 0 0.262745 0 0 0 0 0.623529 0 0 0 0.5 0"/>
<feBlend mode="normal" in2="shape" result="effect1_innerShadow_3_22"/>
</filter>
<filter id="filter33_i_3_22" x="509.415" y="109.984" width="112.812" height="108.774" filterUnits="userSpaceOnUse" color-interpolation-filters="sRGB">
<feFlood flood-opacity="0" result="BackgroundImageFix"/>
<feBlend mode="normal" in="SourceGraphic" in2="BackgroundImageFix" result="shape"/>
<feColorMatrix in="SourceAlpha" type="matrix" values="0 0 0 0 0 0 0 0 0 0 0 0 0 0 0 0 0 0 127 0" result="hardAlpha"/>
<feOffset dy="3.66408"/>
<feGaussianBlur stdDeviation="3.66408"/>
<feComposite in2="hardAlpha" operator="arithmetic" k2="-1" k3="1"/>
<feColorMatrix type="matrix" values="0 0 0 0 0.356863 0 0 0 0 0.262745 0 0 0 0 0.623529 0 0 0 0.5 0"/>
<feBlend mode="normal" in2="shape" result="effect1_innerShadow_3_22"/>
</filter>
<filter id="filter34_i_3_22" x="532.078" y="126.13" width="73.5117" height="76.5933" filterUnits="userSpaceOnUse" color-interpolation-filters="sRGB">
<feFlood flood-opacity="0" result="BackgroundImageFix"/>
<feBlend mode="normal" in="SourceGraphic" in2="BackgroundImageFix" result="shape"/>
<feColorMatrix in="SourceAlpha" type="matrix" values="0 0 0 0 0 0 0 0 0 0 0 0 0 0 0 0 0 0 127 0" result="hardAlpha"/>
<feOffset dy="3.66408"/>
<feGaussianBlur stdDeviation="3.66408"/>
<feComposite in2="hardAlpha" operator="arithmetic" k2="-1" k3="1"/>
<feColorMatrix type="matrix" values="0 0 0 0 0.356863 0 0 0 0 0.262745 0 0 0 0 0.623529 0 0 0 0.5 0"/>
<feBlend mode="normal" in2="shape" result="effect1_innerShadow_3_22"/>
</filter>
<filter id="filter35_i_3_22" x="53.7764" y="289.425" width="67.4231" height="74.2749" filterUnits="userSpaceOnUse" color-interpolation-filters="sRGB">
<feFlood flood-opacity="0" result="BackgroundImageFix"/>
<feBlend mode="normal" in="SourceGraphic" in2="BackgroundImageFix" result="shape"/>
<feColorMatrix in="SourceAlpha" type="matrix" values="0 0 0 0 0 0 0 0 0 0 0 0 0 0 0 0 0 0 127 0" result="hardAlpha"/>
<feOffset dy="3.66408"/>
<feGaussianBlur stdDeviation="3.66408"/>
<feComposite in2="hardAlpha" operator="arithmetic" k2="-1" k3="1"/>
<feColorMatrix type="matrix" values="0 0 0 0 0.356863 0 0 0 0 0.262745 0 0 0 0 0.623529 0 0 0 0.5 0"/>
<feBlend mode="normal" in2="shape" result="effect1_innerShadow_3_22"/>
</filter>
<filter id="filter36_f_3_22" x="-219.954" y="0.0722656" width="1106.01" height="839.688" filterUnits="userSpaceOnUse" color-interpolation-filters="sRGB">
<feFlood flood-opacity="0" result="BackgroundImageFix"/>
<feBlend mode="normal" in="SourceGraphic" in2="BackgroundImageFix" result="shape"/>
<feGaussianBlur stdDeviation="20" result="effect1_foregroundBlur_3_22"/>
</filter>
<filter id="filter37_f_3_22" x="57.7334" y="9.30664" width="1106.07" height="903.662" filterUnits="userSpaceOnUse" color-interpolation-filters="sRGB">
<feFlood flood-opacity="0" result="BackgroundImageFix"/>
<feBlend mode="normal" in="SourceGraphic" in2="BackgroundImageFix" result="shape"/>
<feGaussianBlur stdDeviation="25" result="effect1_foregroundBlur_3_22"/>
</filter>
<linearGradient id="paint0_linear_3_22" x1="635.5" y1="255.354" x2="-46" y2="900.354" gradientUnits="userSpaceOnUse">
<stop stop-color="#E2D8FE"/>
<stop offset="1" stop-color="#836EBE"/>
</linearGradient>
<linearGradient id="paint1_linear_3_22" x1="187.849" y1="548.839" x2="463.529" y2="452.117" gradientUnits="userSpaceOnUse">
<stop stop-color="#705EA9"/>
<stop offset="1" stop-color="#C4B7EA"/>
</linearGradient>
<clipPath id="clip0_3_22">
<rect x="120" y="157.854" width="600" height="600" rx="300" transform="rotate(-4 120 157.854)" fill="white"/>
</clipPath>
</defs>
</svg>
